# xmcd
# 
# Track frame offsets:
#     150
#     20717
#     42647
#     57885
#     79732
#     100270
#     116650
#     130930
#     155097
#     185495
# 
# Disc length: 2845
# 
# Revision: 4
# Processed by: cddbd v1.5.2PL0 Copyright (c) Steve Scherf et al.
# Submitted via: BonkEnc v1.0
# 
DISCID=8a0b1b0a
DTITLE=Matt ''Guitar'' Murphy - Way Down South
DYEAR=1990
DGENRE=Blues
TTITLE0=Way Down South
TTITLE1=Big Six
TTITLE2=Gonna Be Some Changes Made
TTITLE3=Big City Takedown
TTITLE4=Buck's Boogie
TTITLE5=Thump Tyme
TTITLE6=Matt's Guitar Boogie #2
TTITLE7=Low Down and Dirty
TTITLE8=Gimme Somma Dat
TTITLE9=Blue Walls
EXTD=YEAR: 1990
EXTT0=
EXTT1=
EXTT2=
EXTT3=
EXTT4=
EXTT5=
EXTT6=
EXTT7=
EXTT8=
EXTT9=
PLAYORDER=
